# AST/ASF file generated using VICON BodyLanguage
# -----------------------------------------------
:version 1.10
:name VICON
:units
  mass 1.0
  length 0.45
  angle deg
:documentation
   .ast/.asf automatically generated from VICON data using
   VICON BodyBuilder and BodyLanguage model FoxedUp or BRILLIANT.MOD
:root
   order TX TY TZ RX RY RZ
   axis XYZ
   position 0 0 0  
   orientation 0 0 0 
:bonedata
  begin
     id 1 
     name lhipjoint
     direction 0.558404 -0.748506 0.357664 
     length 2.4234 
     axis 0 0 0  XYZ
  end
  begin
     id 2 
     name lfemur
     direction 0.34202 -0.939693 0  
     length 7.14567  
     axis 0 0 20  XYZ
    dof rx ry rz
    limits (-160.0 20.0)
           (-70.0 70.0)
           (-60.0 70.0)
  end
  begin
     id 3 
     name ltibia
     direction 0.34202 -0.939693 0   
     length 8.13956   
     axis 0 0 20   XYZ
    dof rx
    limits (-10.0 170.0)
  end
  begin
     id 4 
     name lfoot
     direction 0.0791314 -0.217412 0.972867   
     length 2.00134   
     axis -90 7.62852e-016 20   XYZ
    dof rx rz
    limits (-45.0 90.0)
           (-70.0 20.0)
  end
  begin
     id 5 
     name ltoes
     direction 1.53547e-011 -4.21922e-011 1   
     length 1.00735   
     axis -90 7.62852e-016 20   XYZ
    dof rx
    limits (-90.0 20.0)
  end
  begin
     id 6 
     name rhipjoint
     direction -0.496392 -0.78327 0.374276   
     length 2.31584  
     axis 0 0 0  XYZ 
  end
  begin
     id 7 
     name rfemur
     direction -0.34202 -0.939693 0   
     length 7.47417   
     axis 0 0 -20   XYZ
    dof rx ry rz
    limits (-160.0 20.0)
           (-70.0 70.0)
           (-70.0 60.0)
  end
  begin
     id 8 
     name rtibia
     direction -0.34202 -0.939693 0   
     length 7.69071   
     axis 0 0 -20   XYZ
    dof rx
    limits (-10.0 170.0)
 end
 begin
     id 9 
     name rfoot
     direction -0.103069 -0.28318 0.953512   
     length 2.16135  
     axis -90 -7.62852e-016 -20   XYZ
    dof rx rz
    limits (-45.0 90.0)
           (-20.0 70.0)
  end
  begin
     id 10 
     name rtoes
     direction -1.53581e-011 -4.21904e-011 1   
     length 1.07867   
     axis -90 -7.62852e-016 -20   XYZ
    dof rx
    limits (-90.0 20.0)
  end
  begin
     id 11 
     name lowerback
     direction -0.0258961 0.994776 -0.0987407   
     length 2.19412   
     axis 0 0 0   XYZ
    dof rx ry rz
    limits (-20.0 45.0)
           (-30.0 30.0)
           (-30.0 30.0)
  end
  begin
     id 12 
     name upperback
     direction 0.0402454 0.999185 0.00320666   
     length 2.18445   
     axis 0 0 0   XYZ
    dof rx ry rz
    limits (-20.0 45.0)
           (-30.0 30.0)
           (-30.0 30.0)
  end
  begin
     id 13 
     name thorax
     direction 0.0519376 0.997415 0.0496558   
     length 2.21487   
     axis 0 0 0   XYZ
    dof rx ry rz
    limits (-20.0 45.0)
           (-30.0 30.0)
           (-30.0 30.0)
  end
  begin
     id 14 
     name lowerneck
     direction -0.0921276 0.983211 0.157506   
     length 1.61201   
     axis 0 0 0   XYZ
    dof rx ry rz
    limits (-20.0 45.0)
           (-30.0 30.0)
           (-30.0 30.0)
  end
  begin
     id 15 
     name upperneck
     direction 0.0820814 0.98162 -0.172292   
     length 1.65275   
     axis 0 0 0   XYZ
    dof rx ry rz
    limits (-20.0 45.0)
           (-30.0 30.0)
           (-30.0 30.0)
  end
  begin
     id 16
     name head
     direction 0.0336554 0.996413 -0.0776455  
     length 1.66415  
     axis 0 0 0   XYZ
    dof rx ry rz
    limits (-20.0 45.0)
           (-30.0 30.0)
           (-30.0 30.0)
  end
  begin
     id 17 
     name lclavicle
     direction 0.94696 0.284418 -0.149576  
     length 3.41447  
     axis 0 0 0   XYZ
    dof ry rz
    limits (-20.0 10.0)
           (0.0 20.0)
  end
  begin
     id 18 
     name lhumerus
     direction 1 -0.000130264 -9.81312e-005   
     length 5.19964   
     axis 180 -30 -90   XYZ
    dof rx ry rz
    limits (-60.0 90.0)
           (-90.0 90.0)
           (-90.0 90.0)
  end
  begin
     id 19
     name lradius
     direction 1 -4.48961e-011 1.43854e-026   
     length 3.32189   
     axis 180 -30 -90   XYZ
    dof rx
    limits (-10.0 170.0)
  end
  begin
     id 20
     name lwrist
     direction 1 -4.48958e-011 3.1502e-026   
     length 1.66095   
     axis -1.97692e-014 90 90   XYZ
    dof ry
    limits (-180.0 0.0)
 end
  begin
     id 21 
     name lhand
     direction 1 -4.48927e-011 6.3004e-026   
     length 0.645616   
     axis -4.02019e-014 90 90   XYZ
    dof rx rz
    limits (-90.0 90.0)
           (-45.0 45.0)
  end
  begin
     id 22 
     name lfingers
     direction 1 -4.4904e-011 1.26008e-025   
     length 0.520512   
     axis -8.04039e-014 90 90   XYZ
    dof rx
    limits (0.0 90.0)
  end
  begin
     id 23
     name lthumb
     direction 0.707107 -6.34947e-011 0.707107   
     length 0.747354   
     axis -90 45 2.85299e-015   XYZ
    dof rx rz
    limits (-45.0 45.0)
           (-45.0 45.0)
  end
  begin
     id 24 
     name rclavicle
     direction -0.909391 0.383475 -0.161107   
     length 3.25176  
     axis 0 0 0   XYZ 
    dof ry rz
    limits (-10.0 20.0)
           (-20.0 0.0)
  end
  begin
     id 25 
     name rhumerus
     direction -1 -4.48965e-011 -1.81384e-027  
     length 5.6595   
     axis 180 30 90   XYZ
    dof rx ry rz
    limits (-90.0 60.0)
           (-90.0 90.0)
           (-90.0 90.0)
  end
  begin
     id 26 
     name rradius
     direction -1 -4.48996e-011 -8.09397e-027   
     length 3.37604   
     axis 180 30 90   XYZ
    dof rx
    limits (-10.0 170.0)
  end
  begin
     id 27 
     name rwrist
     direction -1 -4.48927e-011 -1.56669e-026   
     length 1.68802   
     axis 1.21142e-014 -90 -90   XYZ
    dof ry
    limits (-180.0 0.0)
  end
  begin
     id 28
     name rhand
     direction -1 -4.48912e-011 -3.13339e-026   
     length 0.824702   
     axis 1.99937e-014 -90 -90   XYZ
    dof rx rz
    limits (-90.0 90.0)
           (-45.0 45.0)
  end
  begin
     id 29
     name rfingers
     direction -1 -4.49011e-011 -6.26677e-026   
     length 0.664896   
     axis 3.99874e-014 -90 -90   XYZ
    dof rx
    limits (0.0 90.0)
  end
  begin
     id 30
     name rthumb
     direction -0.707107 -6.34931e-011 0.707107   
     length 0.954662   
     axis -90 -45 -2.85299e-015   XYZ
    dof rx rz
    limits (-45.0 45.0)
           (-45.0 45.0)
  end
:hierarchy
  begin
    root lhipjoint rhipjoint lowerback
    lhipjoint lfemur
    lfemur ltibia
    ltibia lfoot
    lfoot ltoes
    rhipjoint rfemur
    rfemur rtibia
    rtibia rfoot
    rfoot rtoes
    lowerback upperback
    upperback thorax
    thorax lowerneck lclavicle rclavicle
    lowerneck upperneck
    upperneck head
    lclavicle lhumerus
    lhumerus lradius
    lradius lwrist
    lwrist lhand lthumb
    lhand lfingers
    rclavicle rhumerus
    rhumerus rradius
    rradius rwrist
    rwrist rhand rthumb
    rhand rfingers
  end

#!OML:ASF F:\VICON\USERDATA\INSTALL\rory3\rory3.ASF
:FULLY-SPECIFIED
:DEGREES
110
root 11.3469 17.4502 -37.5118 7.3321 -19.1999 -4.18745
lowerback 7.12714 -0.45436 -0.321806
upperback -2.59454 -0.343137 4.95467
thorax -6.70478 -0.0442793 5.45724
lowerneck -13.5706 -3.47044 -13.2426
upperneck 19.2579 -3.90026 9.53707
head 8.68717 -1.87207 5.01717
rclavicle -1.49585e-014 -5.56597e-015
rhumerus -36.4507 -12.2885 -74.1692
rradius 29.3476
rwrist -13.2405
rhand -13.471 17.0597
rfingers 7.12502
rthumb 12.6392 -12.5379
lclavicle -1.49585e-014 -5.56597e-015
lhumerus -33.296 15.8218 86.1552
lradius 23.5831
lwrist -11.5157
lhand -6.52735 30.8151
lfingers 7.12502
lthumb 19.3253 59.8748
rfemur -11.97 2.97346 28.5458
rtibia 39.8879
rfoot -30.5752 -10.2202
rtoes 20.3208
lfemur -31.2595 -1.22671 -12.3133
ltibia 65.7505
lfoot -16.8736 -3.57858
ltoes -0.906173
111
root 11.3338 17.4498 -37.469 7.55215 -18.9996 -4.17077
lowerback 6.93114 -0.475499 -0.235545
upperback -2.49875 -0.37566 4.88488
thorax -6.48705 -0.0705958 5.32864
lowerneck -13.6639 -3.53406 -13.2592
upperneck 19.1405 -4.00906 9.73799
head 8.68211 -1.90054 5.07495
rclavicle -7.71285e-014 3.26007e-014
rhumerus -36.0679 -13.1188 -73.9947
rradius 28.9024
rwrist -12.7336
rhand -13.4953 17.3231
rfingers 7.12502
rthumb 12.6157 -12.276
lclavicle -7.71285e-014 3.26007e-014
lhumerus -33.0706 16.2238 85.8165
lradius 22.9815
lwrist -12.8176
lhand -7.33528 28.9998
lfingers 7.12502
lthumb 18.5483 58.1354
rfemur -11.9606 2.90192 28.5568
rtibia 39.7228
rfoot -30.6466 -10.2675
rtoes 20.6233
lfemur -31.9787 -1.38666 -12.1568
ltibia 65.7987
lfoot -16.8539 -3.52275
ltoes -0.377164
112
root 11.317 17.4551 -37.4311 7.85719 -18.7522 -4.29609
lowerback 6.86786 -0.450025 -0.0908794
upperback -2.47914 -0.331651 4.85565
thorax -6.43444 -0.0565977 5.2069
lowerneck -13.5971 -3.65444 -13.1246
upperneck 18.9484 -4.20467 9.73699
head 8.62695 -1.98159 5.02329
rclavicle -2.00773e-014 -2.38542e-014
rhumerus -35.9431 -13.7309 -73.8834
rradius 28.7793
rwrist -12.5683
rhand -13.5014 17.3916
rfingers 7.12502
rthumb 12.6099 -12.2078
lclavicle -2.00773e-014 -2.38542e-014
lhumerus -32.8018 16.5928 85.4825
lradius 22.5103
lwrist -13.6477
lhand -7.25274 28.4471
lfingers 7.12502
lthumb 18.6277 57.5752
rfemur -12.003 2.83412 28.7592
rtibia 39.5007
rfoot -30.5921 -10.5544
rtoes 20.2278
lfemur -32.7977 -1.6412 -11.7846
ltibia 65.7319
lfoot -16.7438 -3.61939
ltoes 0.4296
113
root 11.3007 17.4594 -37.3818 8.04674 -18.6847 -4.37081
lowerback 6.80802 -0.443374 -0.0903574
upperback -2.45503 -0.323093 4.89555
thorax -6.37531 -0.0528001 5.24609
lowerneck -13.3275 -3.65828 -13.0119
upperneck 18.6572 -4.23373 9.64582
head 8.47871 -1.9985 4.96217
rclavicle 5.14355e-014 -4.6118e-014
rhumerus -35.8456 -13.8973 -73.8196
rradius 28.7169
rwrist -12.408
rhand -13.5787 17.4509
rfingers 7.12502
rthumb 12.5353 -12.153
lclavicle 5.14355e-014 -4.6118e-014
lhumerus -32.663 17.3991 85.0535
lradius 22.2315
lwrist -13.9328
lhand -6.52157 28.6602
lfingers 7.12502
lthumb 19.3309 57.7194
rfemur -11.9073 2.7862 28.8467
rtibia 39.3197
rfoot -30.5775 -10.7215
rtoes 19.3253
lfemur -33.4257 -1.90911 -11.5017
ltibia 65.5873
lfoot -16.689 -3.61874
ltoes 1.25875
114
root 11.2939 17.4526 -37.2955 7.89269 -19.3956 -4.38105
lowerback 6.70151 -0.237388 -0.0166607
upperback -2.24216 -0.0559033 4.81961
thorax -6.11245 0.0682344 5.08237
lowerneck -13.2731 -3.6277 -13.0154
upperneck 18.5935 -4.2168 9.75449
head 8.44701 -1.98091 5.00175
rclavicle -1.91827e-014 1.43125e-014
rhumerus -35.7129 -14.0722 -73.7852
rradius 28.597
rwrist -12.2025
rhand -13.5913 17.5164
rfingers 7.12502
rthumb 12.5232 -12.0883
lclavicle -1.91827e-014 1.43125e-014
lhumerus -32.622 17.8345 84.7599
lradius 22.1641
lwrist -13.7929
lhand -5.99825 28.9941
lfingers 7.12502
lthumb 19.834 58.002
rfemur -11.2532 3.02436 28.6101
rtibia 39.0626
rfoot -30.5256 -10.2738
rtoes 18.5808
lfemur -33.3189 -1.6271 -11.5247
ltibia 65.36
lfoot -16.9242 -3.28036
ltoes 1.41706
115
root 11.2785 17.4373 -37.2666 8.15508 -18.7344 -4.22032
lowerback 6.984 -0.448297 -0.164904
upperback -2.43995 -0.337473 4.80448
thorax -6.45866 -0.057446 5.19686
lowerneck -13.4432 -3.64177 -13.0508
upperneck 18.7833 -4.24662 9.88783
head 8.54888 -1.9831 5.05547
rclavicle -1.43125e-014 -2.06736e-014
rhumerus -35.828 -13.7981 -73.9207
rradius 28.8834
rwrist -12.618
rhand -13.4152 17.5065
rfingers 7.12502
rthumb 12.6929 -12.0877
lclavicle -1.43125e-014 -2.06736e-014
lhumerus -32.7292 17.6923 84.7015
lradius 22.3296
lwrist -13.303
lhand -5.78729 29.5281
lfingers 7.12502
lthumb 20.0368 58.515
rfemur -11.3416 2.76064 28.599
rtibia 38.8162
rfoot -30.5443 -10.3399
rtoes 19.5478
lfemur -34.3503 -2.14561 -11.3504
ltibia 65.1349
lfoot -16.6969 -3.34239
ltoes 1.96043
116
root 11.2669 17.4443 -37.1987 8.29093 -18.832 -4.38718
lowerback 7.19567 -0.42616 -0.0253293
upperback -2.50714 -0.281826 4.87953
thorax -6.65766 -0.0302789 5.19802
lowerneck -13.3384 -3.65943 -13.0754
upperneck 18.7601 -4.26386 9.82081
head 8.52365 -2.0018 5.0336
rclavicle 1.22253e-014 -3.02153e-014
rhumerus -36.0441 -13.365 -73.981
rradius 29.2169
rwrist -13.0537
rhand -13.3865 17.3868
rfingers 7.12502
rthumb 12.7206 -12.2057
lclavicle 1.22253e-014 -3.02153e-014
lhumerus -32.98 17.6985 84.6874
lradius 22.6573
lwrist -12.7963
lhand -5.16372 30.8336
lfingers 7.12502
lthumb 20.6361 59.7566
rfemur -11.0115 2.81893 28.6971
rtibia 38.4852
rfoot -30.7097 -10.0322
rtoes 20.659
lfemur -34.6808 -2.36905 -11.0141
ltibia 64.7261
lfoot -17.102 -3.00618
ltoes 0.719028
117
root 11.2553 17.4539 -37.1359 8.34966 -18.868 -4.48711
lowerback 7.37065 -0.351983 0.128069
upperback -2.45304 -0.165549 4.85587
thorax -6.71141 0.020278 5.07267
lowerneck -13.3074 -3.73171 -13.027
upperneck 18.5495 -4.37734 9.87416
head 8.46156 -2.0446 5.02553
rclavicle 2.08724e-015 2.06736e-014
rhumerus -35.9599 -13.8914 -73.7935
rradius 29.0612
rwrist -12.8732
rhand -13.3883 17.4014
rfingers 7.12502
rthumb 12.7189 -12.1912
lclavicle 2.08724e-015 2.06736e-014
lhumerus -32.8124 17.6171 84.6746
lradius 22.7905
lwrist -12.282
lhand -6.65861 29.9553
lfingers 7.12502
lthumb 19.1991 59.0276
rfemur -10.6457 2.84431 28.7417
rtibia 38.1922
rfoot -30.9614 -10.0547
rtoes 20.473
lfemur -34.9706 -2.70157 -10.7174
ltibia 64.2614
lfoot -18.3009 -2.51548
ltoes -5.4892
118
root 11.2447 17.4558 -37.0748 8.45135 -18.8129 -4.44662
lowerback 7.34263 -0.304281 0.19686
upperback -2.34931 -0.104165 4.7779
thorax -6.58979 0.0431291 4.93818
lowerneck -13.5581 -3.80169 -13.0346
upperneck 18.5918 -4.48938 10.0931
head 8.54049 -2.07097 5.0908
rclavicle 6.06293e-015 -5.1684e-014
rhumerus -35.633 -14.8477 -73.4622
rradius 28.5239
rwrist -12.2942
rhand -13.3822 17.6445
rfingers 7.12502
rthumb 12.7248 -11.9478
lclavicle 6.06293e-015 -5.1684e-014
lhumerus -32.4434 17.5563 84.6554
lradius 22.7094
lwrist -11.9543
lhand -4.40861 32.5475
lfingers 7.12502
lthumb 21.3615 61.39
rfemur -10.3448 2.85524 28.682
rtibia 37.8145
rfoot -31.0806 -10.195
rtoes 20.2496
lfemur -35.4186 -3.09405 -10.5456
ltibia 63.7461
lfoot -18.0472 -2.65194
ltoes -4.68967
119
root 11.2313 17.4532 -37.0233 8.63082 -18.3069 -4.4324
lowerback 7.44667 -0.471933 0.143782
upperback -2.39614 -0.322167 4.89868
thorax -6.68093 -0.05769 5.13007
lowerneck -13.6574 -3.83222 -13.1869
upperneck 18.7833 -4.49495 10.0861
head 8.62804 -2.08484 5.11795
rclavicle 4.1049e-014 2.14687e-014
rhumerus -35.7659 -13.7308 -73.7774
rradius 29.2292
rwrist -13.3048
rhand -13.7209 17.1843
rfingers 7.12502
rthumb 12.3982 -12.428
lclavicle 4.1049e-014 2.14687e-014
lhumerus -32.4262 17.9146 84.6502
lradius 22.8046
lwrist -11.792
lhand -4.83598 32.184
lfingers 7.12502
lthumb 20.951 61.0725
rfemur -10.1967 2.74566 28.8017
rtibia 37.4824
rfoot -31.1281 -10.5688
rtoes 20.0227
lfemur -36.1332 -3.76835 -10.2267
ltibia 63.1995
lfoot -17.981 -2.52659
ltoes -5.3709
120
root 11.2199 17.452 -36.9533 8.61826 -17.6409 -4.38286
lowerback 7.26114 -0.721953 0.471289
upperback -2.15009 -0.649143 4.7518
thorax -6.28784 -0.243798 4.81439
lowerneck -13.7294 -3.8929 -12.987
upperneck 18.5101 -4.60462 10.1193
head 8.55884 -2.11368 5.07525
rclavicle -3.22031e-014 -2.38542e-015
rhumerus -35.3763 -13.8077 -74.157
rradius 29.2537
rwrist -13.2795
rhand -13.7654 17.3301
rfingers 7.12502
rthumb 12.3553 -12.2848
lclavicle -3.22031e-014 -2.38542e-015
lhumerus -32.0293 18.1045 84.4092
lradius 22.9019
lwrist -11.6323
lhand -4.58394 32.6585
lfingers 7.12502
lthumb 21.1931 61.52
rfemur -9.77304 2.43803 28.8819
rtibia 37.1251
rfoot -31.2605 -10.8947
rtoes 19.8341
lfemur -36.5689 -4.66708 -9.93023
ltibia 62.5247
lfoot -18.2429 -2.13841
ltoes -7.44815
121
root 11.2135 17.4589 -36.8948 8.86558 -18.1822 -4.48266
lowerback 7.54827 -0.528479 0.380561
upperback -2.23699 -0.381681 4.82803
thorax -6.56588 -0.101854 4.92451
lowerneck -13.7576 -3.90309 -12.9856
upperneck 18.4552 -4.59941 10.0624
head 8.54374 -2.11507 5.05401
rclavicle 7.14631e-014 -2.8625e-014
rhumerus -35.3496 -13.8241 -73.978
rradius 29.1083
rwrist -12.9104
rhand -13.6193 17.5797
rfingers 7.12502
rthumb 12.4962 -12.0267
lclavicle 7.14631e-014 -2.8625e-014
lhumerus -32.1894 18.5103 84.3203
lradius 23.1075
lwrist -11.4512
lhand -4.5753 33.0574
lfingers 7.12502
lthumb 21.2014 61.918
rfemur -9.6622 2.63872 28.7795
rtibia 36.8164
rfoot -30.9005 -10.5456
rtoes 19.8042
lfemur -36.929 -4.57407 -9.62212
ltibia 61.7363
lfoot -18.387 -1.87006
ltoes -8.21177
122
root 11.2025 17.4662 -36.814 8.74547 -17.7759 -4.4371
lowerback 7.95205 -0.676298 0.41688
upperback -2.31599 -0.554725 4.9055
thorax -6.86797 -0.181751 5.02397
lowerneck -13.7466 -3.8747 -13.1005
upperneck 18.6312 -4.54561 10.0578
head 8.59699 -2.10078 5.08285
rclavicle -2.68359e-014 2.62396e-014
rhumerus -35.4897 -13.5044 -73.8456
rradius 29.1398
rwrist -12.9827
rhand -13.536 17.5546
rfingers 7.12502
rthumb 12.5765 -12.0469
lclavicle -2.68359e-014 2.62396e-014
lhumerus -32.5332 18.6854 84.2903
lradius 23.4945
lwrist -10.9034
lhand -4.46273 33.7067
lfingers 7.12502
lthumb 21.3096 62.5551
rfemur -9.1229 2.20513 28.7649
rtibia 36.4907
rfoot -30.8188 -11.068
rtoes 17.4359
lfemur -37.0616 -5.34342 -9.35508
ltibia 60.8411
lfoot -18.1629 -1.9552
ltoes -6.7348
123
root 11.1933 17.4671 -36.7389 8.97305 -18.1599 -4.44035
lowerback 8.09455 -0.52601 0.344501
upperback -2.41121 -0.35024 4.93818
thorax -7.06871 -0.0731738 5.0797
lowerneck -13.8345 -3.9403 -13.2571
upperneck 18.8448 -4.6131 10.1022
head 8.69939 -2.13985 5.12187
rclavicle 1.2921e-015 -2.06736e-014
rhumerus -35.6272 -13.0628 -73.8402
rradius 29.351
rwrist -13.3475
rhand -13.4615 17.5003
rfingers 7.12502
rthumb 12.6483 -12.0967
lclavicle 1.2921e-015 -2.06736e-014
lhumerus -32.7083 18.6465 84.32
lradius 23.9306
lwrist -10.5314
lhand -3.61492 34.9231
lfingers 7.12502
lthumb 22.1237 63.6773
rfemur -8.97055 2.21355 28.5985
rtibia 36.2045
rfoot -30.5791 -10.7836
rtoes 17.1899
lfemur -37.3789 -5.40868 -9.16607
ltibia 59.9653
lfoot -17.9702 -1.87216
ltoes -5.30424
